# xmcd
#
# Track frame offsets: 
#        150
#        12474
#        25608
#        37281
#        50510
#        64302
#        76191
#        86842
#        100406
#        113068
#        127020
#        138124
#        152827
#        165591
#        174519
#        187349
#        199400
#        211795
#        225312
#        235981
#
# Disc length: 3285 seconds
#
# Revision: 0
# Processed by: cddbd v1.5.2PL0 Copyright (c) Steve Scherf et al.
# Submitted via: ExactAudioCopy v0.99pb5
#
DISCID=150cd314
DTITLE=Various Artist - Muddy Waters - The Headhunters
DYEAR=2009
DGENRE=Blues
TTITLE0=Walter Little - Juke
TTITLE1=Walter Little - Mean Old World
TTITLE2=Walter Little - My Babe
TTITLE3=Walter Little - Just A Feeling
TTITLE4=Guy Buddy - Sit and Cry (The Blues)
TTITLE5=Guy Buddy - Try To Quit You
TTITLE6=Cotton James - Straighten Up Baby
TTITLE7=Cotton James - Cotton Crop Blues
TTITLE8=Cotton James - Hold Me In Your Arms
TTITLE9=Wells Junior - Hoodoo Man
TTITLE10=Wells Junior - Tomorrow Night
TTITLE11=Wells Junior - 'Bout The Break Of Day
TTITLE12=Rogers Jimmy - That's All Right
TTITLE13=Rogers Jimmy - Ludella
TTITLE14=Rogers Jimmy - Walking By Myself
TTITLE15=Lockwood Robert Jr - I'm Gonna Dig Myself A Hole
TTITLE16=Lockwood Robert Jr - Dust My Broom
TTITLE17=Horton Walter - Black Gal Blues
TTITLE18=Horton Walter - Have A Good Time
TTITLE19=Horton Walter - Need My Baby
EXTD=
EXTT0=
EXTT1=
EXTT2=
EXTT3=
EXTT4=
EXTT5=
EXTT6=
EXTT7=
EXTT8=
EXTT9=
EXTT10=
EXTT11=
EXTT12=
EXTT13=
EXTT14=
EXTT15=
EXTT16=
EXTT17=
EXTT18=
EXTT19=
PLAYORDER=
